<mxfile host="app.diagrams.net" agent="Mozilla/5.0 (Windows NT 10.0; Win64; x64) AppleWebKit/537.36 (KHTML, like Gecko) Chrome/126.0.0.0 Safari/537.36" version="24.7.4">
  <diagram name="페이지-1" id="AgX4ZW0-Dqr8SKiTjsvv">
    <mxGraphModel dx="1199" dy="638" grid="1" gridSize="10" guides="1" tooltips="1" connect="1" arrows="1" fold="1" page="1" pageScale="1" pageWidth="4681" pageHeight="3300" math="0" shadow="0">
      <root>
        <mxCell id="0" />
        <mxCell id="1" parent="0" />
        <mxCell id="M4-Ia4zdqxRT46iFurV6-8" style="rounded=0;orthogonalLoop=1;jettySize=auto;html=1;entryX=0.5;entryY=0;entryDx=0;entryDy=0;" parent="1" source="M4-Ia4zdqxRT46iFurV6-1" target="M4-Ia4zdqxRT46iFurV6-2" edge="1">
          <mxGeometry relative="1" as="geometry" />
        </mxCell>
        <mxCell id="M4-Ia4zdqxRT46iFurV6-9" style="rounded=0;orthogonalLoop=1;jettySize=auto;html=1;entryX=0.5;entryY=0;entryDx=0;entryDy=0;" parent="1" source="M4-Ia4zdqxRT46iFurV6-1" target="M4-Ia4zdqxRT46iFurV6-3" edge="1">
          <mxGeometry relative="1" as="geometry" />
        </mxCell>
        <mxCell id="M4-Ia4zdqxRT46iFurV6-10" style="rounded=0;orthogonalLoop=1;jettySize=auto;html=1;entryX=0.5;entryY=0;entryDx=0;entryDy=0;" parent="1" source="M4-Ia4zdqxRT46iFurV6-1" target="M4-Ia4zdqxRT46iFurV6-4" edge="1">
          <mxGeometry relative="1" as="geometry" />
        </mxCell>
        <mxCell id="M4-Ia4zdqxRT46iFurV6-11" style="rounded=0;orthogonalLoop=1;jettySize=auto;html=1;" parent="1" source="M4-Ia4zdqxRT46iFurV6-1" target="M4-Ia4zdqxRT46iFurV6-5" edge="1">
          <mxGeometry relative="1" as="geometry" />
        </mxCell>
        <mxCell id="M4-Ia4zdqxRT46iFurV6-13" style="rounded=0;orthogonalLoop=1;jettySize=auto;html=1;entryX=0.5;entryY=0;entryDx=0;entryDy=0;" parent="1" source="M4-Ia4zdqxRT46iFurV6-1" target="M4-Ia4zdqxRT46iFurV6-6" edge="1">
          <mxGeometry relative="1" as="geometry" />
        </mxCell>
        <mxCell id="M4-Ia4zdqxRT46iFurV6-14" style="rounded=0;orthogonalLoop=1;jettySize=auto;html=1;entryX=0.5;entryY=0;entryDx=0;entryDy=0;" parent="1" source="M4-Ia4zdqxRT46iFurV6-1" target="M4-Ia4zdqxRT46iFurV6-7" edge="1">
          <mxGeometry relative="1" as="geometry" />
        </mxCell>
        <mxCell id="M4-Ia4zdqxRT46iFurV6-1" value="학생정보" style="rounded=1;arcSize=10;whiteSpace=wrap;html=1;align=center;" parent="1" vertex="1">
          <mxGeometry x="430" y="210" width="190" height="50" as="geometry" />
        </mxCell>
        <mxCell id="M4-Ia4zdqxRT46iFurV6-2" value="학번" style="ellipse;whiteSpace=wrap;html=1;align=center;fontStyle=4;" parent="1" vertex="1">
          <mxGeometry x="90" y="390" width="100" height="40" as="geometry" />
        </mxCell>
        <mxCell id="M4-Ia4zdqxRT46iFurV6-3" value="학생이름" style="ellipse;whiteSpace=wrap;html=1;align=center;" parent="1" vertex="1">
          <mxGeometry x="206" y="390" width="100" height="40" as="geometry" />
        </mxCell>
        <mxCell id="M4-Ia4zdqxRT46iFurV6-4" value="학과" style="ellipse;whiteSpace=wrap;html=1;align=center;" parent="1" vertex="1">
          <mxGeometry x="322" y="390" width="100" height="40" as="geometry" />
        </mxCell>
        <mxCell id="M4-Ia4zdqxRT46iFurV6-5" value="학년" style="ellipse;whiteSpace=wrap;html=1;align=center;" parent="1" vertex="1">
          <mxGeometry x="438" y="390" width="100" height="40" as="geometry" />
        </mxCell>
        <mxCell id="M4-Ia4zdqxRT46iFurV6-6" value="전화번호" style="ellipse;whiteSpace=wrap;html=1;align=center;" parent="1" vertex="1">
          <mxGeometry x="554" y="390" width="100" height="40" as="geometry" />
        </mxCell>
        <mxCell id="M4-Ia4zdqxRT46iFurV6-7" value="주소" style="ellipse;whiteSpace=wrap;html=1;align=center;" parent="1" vertex="1">
          <mxGeometry x="670" y="390" width="100" height="40" as="geometry" />
        </mxCell>
        <mxCell id="ghGgzYBO0dtaRTe_-iqB-13" style="rounded=0;orthogonalLoop=1;jettySize=auto;html=1;" parent="1" source="ghGgzYBO0dtaRTe_-iqB-10" target="ghGgzYBO0dtaRTe_-iqB-11" edge="1">
          <mxGeometry relative="1" as="geometry" />
        </mxCell>
        <mxCell id="ghGgzYBO0dtaRTe_-iqB-14" style="rounded=0;orthogonalLoop=1;jettySize=auto;html=1;" parent="1" source="ghGgzYBO0dtaRTe_-iqB-10" target="ghGgzYBO0dtaRTe_-iqB-12" edge="1">
          <mxGeometry relative="1" as="geometry" />
        </mxCell>
        <mxCell id="ghGgzYBO0dtaRTe_-iqB-10" value="과목정보" style="rounded=1;arcSize=10;whiteSpace=wrap;html=1;align=center;" parent="1" vertex="1">
          <mxGeometry x="1020" y="215" width="100" height="40" as="geometry" />
        </mxCell>
        <mxCell id="ghGgzYBO0dtaRTe_-iqB-11" value="과목코드" style="ellipse;whiteSpace=wrap;html=1;align=center;fontStyle=4;" parent="1" vertex="1">
          <mxGeometry x="860" y="390" width="100" height="40" as="geometry" />
        </mxCell>
        <mxCell id="ghGgzYBO0dtaRTe_-iqB-12" value="과목명" style="ellipse;whiteSpace=wrap;html=1;align=center;" parent="1" vertex="1">
          <mxGeometry x="1050" y="390" width="100" height="40" as="geometry" />
        </mxCell>
        <mxCell id="ghGgzYBO0dtaRTe_-iqB-16" value="수강신청" style="shape=rhombus;perimeter=rhombusPerimeter;whiteSpace=wrap;html=1;align=center;" parent="1" vertex="1">
          <mxGeometry x="740" y="90" width="120" height="60" as="geometry" />
        </mxCell>
        <mxCell id="ghGgzYBO0dtaRTe_-iqB-17" value="" style="edgeStyle=entityRelationEdgeStyle;fontSize=12;html=1;endArrow=ERoneToMany;rounded=0;exitX=0.456;exitY=-0.018;exitDx=0;exitDy=0;exitPerimeter=0;" parent="1" source="M4-Ia4zdqxRT46iFurV6-1" target="ghGgzYBO0dtaRTe_-iqB-16" edge="1">
          <mxGeometry width="100" height="100" relative="1" as="geometry">
            <mxPoint x="820" y="270" as="sourcePoint" />
            <mxPoint x="920" y="170" as="targetPoint" />
          </mxGeometry>
        </mxCell>
        <mxCell id="ghGgzYBO0dtaRTe_-iqB-18" value="" style="edgeStyle=entityRelationEdgeStyle;fontSize=12;html=1;endArrow=ERoneToMany;rounded=0;exitX=0.5;exitY=0;exitDx=0;exitDy=0;entryX=1;entryY=0.5;entryDx=0;entryDy=0;" parent="1" source="ghGgzYBO0dtaRTe_-iqB-10" target="ghGgzYBO0dtaRTe_-iqB-16" edge="1">
          <mxGeometry width="100" height="100" relative="1" as="geometry">
            <mxPoint x="820" y="270" as="sourcePoint" />
            <mxPoint x="920" y="170" as="targetPoint" />
          </mxGeometry>
        </mxCell>
        <mxCell id="yxnVRTmKw6pIB4phEApA-2" style="edgeStyle=orthogonalEdgeStyle;rounded=0;orthogonalLoop=1;jettySize=auto;html=1;entryX=0.5;entryY=0;entryDx=0;entryDy=0;" edge="1" parent="1" source="ghGgzYBO0dtaRTe_-iqB-19" target="yxnVRTmKw6pIB4phEApA-1">
          <mxGeometry relative="1" as="geometry" />
        </mxCell>
        <mxCell id="ghGgzYBO0dtaRTe_-iqB-19" value="학생성적" style="shape=rhombus;perimeter=rhombusPerimeter;whiteSpace=wrap;html=1;align=center;" parent="1" vertex="1">
          <mxGeometry x="740" y="205" width="120" height="60" as="geometry" />
        </mxCell>
        <mxCell id="ghGgzYBO0dtaRTe_-iqB-20" value="" style="edgeStyle=entityRelationEdgeStyle;fontSize=12;html=1;endArrow=ERoneToMany;rounded=0;exitX=1;exitY=0.5;exitDx=0;exitDy=0;entryX=0;entryY=0.5;entryDx=0;entryDy=0;" parent="1" source="M4-Ia4zdqxRT46iFurV6-1" target="ghGgzYBO0dtaRTe_-iqB-19" edge="1">
          <mxGeometry width="100" height="100" relative="1" as="geometry">
            <mxPoint x="790" y="480" as="sourcePoint" />
            <mxPoint x="890" y="380" as="targetPoint" />
          </mxGeometry>
        </mxCell>
        <mxCell id="ghGgzYBO0dtaRTe_-iqB-21" value="" style="edgeStyle=entityRelationEdgeStyle;fontSize=12;html=1;endArrow=ERoneToMany;rounded=0;entryX=1;entryY=0.5;entryDx=0;entryDy=0;exitX=0;exitY=0.5;exitDx=0;exitDy=0;" parent="1" source="ghGgzYBO0dtaRTe_-iqB-10" target="ghGgzYBO0dtaRTe_-iqB-19" edge="1">
          <mxGeometry width="100" height="100" relative="1" as="geometry">
            <mxPoint x="790" y="480" as="sourcePoint" />
            <mxPoint x="890" y="380" as="targetPoint" />
          </mxGeometry>
        </mxCell>
        <mxCell id="yxnVRTmKw6pIB4phEApA-1" value="성적" style="ellipse;whiteSpace=wrap;html=1;align=center;" vertex="1" parent="1">
          <mxGeometry x="750" y="300" width="100" height="40" as="geometry" />
        </mxCell>
      </root>
    </mxGraphModel>
  </diagram>
</mxfile>
